<?xml version="1.0" encoding="UTF-8"?>
<!DOCTYPE svg PUBLIC "-//W3C//DTD SVG 1.1//EN" "http://www.w3.org/Graphics/SVG/1.1/DTD/svg11.dtd">
<!-- Creator: CorelDRAW 2020 (64 Bit) -->
<svg xmlns="http://www.w3.org/2000/svg" xml:space="preserve" width="1654px" height="472px" version="1.1" style="shape-rendering:geometricPrecision; text-rendering:geometricPrecision; image-rendering:optimizeQuality; fill-rule:evenodd; clip-rule:evenodd"
viewBox="0 0 165400 47257"
 xmlns:xlink="http://www.w3.org/1999/xlink"
 xmlns:xodm="http://www.corel.com/coreldraw/odm/2003">
 <defs>
  <style type="text/css">
   <![CDATA[
    .fil0 {fill:none}
    .fil1 {fill:#B0B1B1}
    .fil2 {fill:#2C2D45}
   ]]>
  </style>
 </defs>
 <g id="Camada_x0020_1">
  <metadata id="CorelCorpID_0Corel-Layer"/>
  <rect class="fil0" x="-23" y="78" width="165400" height="47257"/>
  <g id="_493803344992">
   <path class="fil1" d="M9878 27098l0 -11944c0,-1512 -49,-2206 -1230,-2206l-549 0 0 -623 5858 0c2785,0 4359,748 4323,3054 -19,1199 -1338,2885 -3229,3561 1785,341 3645,2225 3645,4110 0,3500 -3003,4048 -5289,4048l-3529 0 0 0zm1925 -8294l0 0 1409 -1c2126,-1 3218,-2007 3218,-3053 0,-2764 -2251,-2979 -4626,-2800l0 5854 -1 0zm0 6102l0 0c0,865 1159,1493 1972,1602 2040,275 3223,-1439 3228,-2793 11,-2584 -2285,-4323 -4174,-4236 -319,15 -829,-12 -1026,22l0 5405 0 0zm23353 -6568l0 0c1234,-1472 3090,-2120 4206,-2120 573,0 1068,147 1481,432 415,287 745,762 989,1422 171,462 276,1081 276,2030l0 4509c0,663 56,1112 161,1351 82,188 220,339 405,444 187,106 593,161 1096,161l0 424 -5208 0 0 -424 220 0c487,0 923,-75 1118,-224 192,-148 329,-370 404,-656 30,-114 47,-475 47,-1076l0 -4340c0,-962 -126,-1666 -373,-2101 -247,-435 -757,-652 -1346,-652 -907,0 -2576,499 -3476,1500l0 5593c0,710 43,1147 126,1315 109,221 259,383 448,487 188,104 697,154 1274,154l0 424 -5232 0 0 -424 232 0c538,0 899,-134 1088,-405 188,-271 283,-789 283,-1551l0 -5128c0,-1044 -707,-1611 -1835,-1941l3616 -1414 0 2210 0 0zm17818 458l0 0c-491,-771 -1433,-1887 -2785,-1949 -2257,-102 -3113,2335 -3122,4099 -17,3334 1195,5393 4096,5477 828,24 1943,-223 2759,-739l28 933c-1167,719 -2224,822 -3724,822 -3125,0 -5155,-2431 -5155,-5335 0,-3128 2110,-5953 5629,-5953 1070,0 2886,382 3589,1239l-1315 1406zm7700 -2707l0 0c2928,0 5302,2539 5302,5671 0,3131 -2374,5670 -5302,5670 -2929,0 -5303,-2539 -5303,-5670 0,-3132 2374,-5671 5303,-5671zm0 668l0 0c-1829,0 -3311,2240 -3311,5003 0,2763 1482,5003 3311,5003 1827,0 3309,-2240 3309,-5003 0,-2763 -1481,-5003 -3309,-5003zm-39678 2961l0 0c-10,-2425 2578,-3591 4156,-3591 939,0 1705,157 2306,471 451,236 586,590 801,1097 138,325 197,1001 209,2019l59 5415c14,1333 1606,1359 2018,1210l21 508c-679,462 -1375,670 -1904,596 -1101,-155 -1702,-1160 -1808,-2074 -750,923 -2061,2066 -3590,2066 -1343,0 -2509,-914 -2452,-2763 79,-2525 4319,-3264 5947,-3857l0 -1235c0,-1589 -189,-2619 -1952,-2619 -1284,0 -1885,545 -1781,2030l-2030 727zm5763 4136l0 0 0 -2332c-1055,416 -3100,942 -3788,1908 -263,369 -580,1363 -23,2177 1099,1608 3811,83 3811,-1753z"/>
   <path class="fil2" d="M83654 19718c-11,-2425 2577,-3591 4156,-3591 939,0 1704,157 2305,471 452,236 587,590 802,1097 138,325 197,1001 208,2019l59 5415c15,1333 1606,1359 2019,1210l21 508c-680,462 -1376,670 -1904,596 -1102,-155 -1703,-1160 -1809,-2074 -749,923 -2060,2066 -3590,2066 -1342,0 -2509,-914 -2451,-2763 79,-2525 4319,-3264 5946,-3857l0 -1235c0,-1589 -189,-2619 -1952,-2619 -1284,0 -1884,545 -1780,2030l-2030 727zm5762 4136l0 0 0 -2332c-1055,416 -3099,942 -3787,1908 -264,369 -580,1363 -24,2177 1099,1608 3811,83 3811,-1753zm-20077 3244l0 0 0 -12165c0,-2058 -245,-1964 -1739,-1964l0 -644 5519 0c5078,0 8393,1439 8393,7308 0,3584 -2273,7464 -7806,7464l-4367 1 0 0zm1918 -2161l0 0c287,1302 2053,1508 2677,1508 3277,0 5546,-2251 5546,-6711 0,-2039 -690,-3668 -1796,-4841 -1187,-1258 -2253,-2050 -6427,-1966l0 12010 0 0zm23409 4736l0 0c583,275 1516,276 1914,148 1748,-561 2309,-1518 2998,-3001l-3896 -8157c-453,-948 -739,-1573 -1675,-1620l0 -610 4379 0 0 610 -244 0c-959,0 -976,470 -377,1769l2746 5953 2846 -6231c352,-770 485,-1507 -788,-1507l0 -593 3273 0 0 593c-523,0 -905,-25 -1631,1507l-4893 10317c-834,1758 -2614,3357 -5597,2427l945 -1605zm33608 -13239l0 0 4406 0 0 603 -322 0c-1047,0 -843,710 -468,1517l2979 6415 2674 -6636c320,-795 324,-1285 -1069,-1285l0 -615 3625 0 0 615c-472,0 -911,-37 -1450,1231l-3880 9145 -677 0 -4181 -8916c-474,-1010 -634,-1386 -1638,-1471l0 -603 1 0zm27134 -4138l0 0 0 12315c0,655 45,1093 141,1304 96,212 244,377 444,487 196,110 569,165 1111,165l0 424 -5160 0 0 -424c483,0 945,-51 1121,-150 177,-98 316,-262 417,-491 99,-227 149,-667 149,-1315l0 -9122c0,-976 -1229,-1601 -1876,-1897l3653 -1296zm-33203 3793l0 0c2928,0 5303,2539 5303,5671 0,3131 -2375,5670 -5303,5670 -2929,0 -5303,-2539 -5303,-5670 0,-3132 2375,-5671 5303,-5671zm0 668l0 0c-1828,0 -3310,2240 -3310,5003 0,2763 1482,5003 3310,5003 1828,0 3310,-2240 3310,-5003 0,-2763 -1482,-5003 -3310,-5003zm19205 2961l0 0c-11,-2425 2577,-3591 4156,-3591 939,0 1705,157 2306,471 451,236 586,590 801,1097 138,325 197,1001 209,2019l59 5415c14,1333 1606,1359 2018,1210l21 508c-679,462 -1375,670 -1904,596 -1101,-155 -1702,-1160 -1808,-2074 -750,923 -2061,2066 -3590,2066 -1343,0 -2510,-914 -2452,-2763 79,-2525 4319,-3264 5947,-3857l0 -1235c0,-1589 -190,-2619 -1952,-2619 -1284,0 -1885,545 -1781,2030l-2030 727zm5762 4136l0 0 0 -2332c-1055,416 -3099,942 -3787,1908 -264,369 -580,1363 -24,2177 1099,1608 3811,83 3811,-1753zm-32697 -5058l0 0c-490,-771 -1433,-1887 -2785,-1949 -2257,-102 -3113,2335 -3122,4099 -17,3334 1195,5393 4096,5477 828,24 1944,-223 2760,-739l27 933c-1166,719 -2223,822 -3723,822 -3126,0 -5156,-2431 -5156,-5335 0,-3128 2111,-5953 5629,-5953 1071,0 2886,382 3590,1239l-1316 1406z"/>
   <g>
    <polygon class="fil1" points="69339,30406 74078,30406 74078,35145 69339,35145 "/>
    <polygon class="fil2" points="74078,30406 78817,30406 78817,35145 74078,35145 "/>
   </g>
  </g>
 </g>
</svg>
