<?xml version="1.0" encoding="UTF-8"?>
<svg version="1.1" viewBox="0 0 2048 441" width="974" height="210" xmlns="http://www.w3.org/2000/svg">
<path transform="translate(2)" d="m0 0h127l22 4 17 6 15 8 12 9 10 9 9 10 9 14 8 17 4 13 2 10 1 12v12l-2 17-4 15-7 17-9 14-8 10-13 13-15 10-19 9-19 5-15 2h-8v67l-1 1h-42v-111l51-1 15-3 16-7 12-9 8-8 8-13 5-12 3-15v-15l-3-14-7-16-9-12-7-7-14-9-12-5-16-3-81-1v292l80-1 13-2 12-4 11-6 10-8 9-10 8-14 4-12 2-13-1-17-4-14-1-6 17-12 14-13 1-2 3 1 7 14 5 15 2 10 1 11v17l-2 16-4 15-8 18-8 12-9 11-9 9-15 11-16 8-10 4-16 4-8 1h-131l-1-2v-309z" fill="#DD5F04"/>
<path transform="translate(316,189)" d="m0 0h81l17 2 14 5 11 8 7 8 6 10 4 12 2 11v18l-4 18-7 14-9 10-10 6-11 4-14 2h-38v60l-1 1h-47l-1-1zm49 40v46h13l15-2 8-4 5-6 1-4v-15l-4-8-8-5-12-2z" fill="#DD5F04"/>
<path transform="translate(1391,243)" d="m0 0 16 1 11 4 9 6 9 10 1 2 1-18h43v130h-42l-1-19-11 12-11 7-9 3-5 1h-20l-12-3-12-7-8-8-7-11-5-12-3-14-1-17 2-18 4-13 7-13 9-10 11-7 10-4zm11 39-9 4-6 5-5 10-2 9 1 12 4 10 8 8 11 4h13l11-4 5-4 5-8 2-7v-17l-4-10-4-5-7-5-6-2z" fill="#DD5F04"/>
<path transform="translate(1135,243)" d="m0 0 18 1 12 4 8 6 5 5 5 8 3 10 1 8v93h-46l-1-75-2-11-4-8-8-4h-13l-10 5-5 7-4 15-1 12-1 59h-45v-130h42v24h2l2-5 9-11 10-7 9-4z" fill="#DD5F04"/>
<path transform="translate(659,243)" d="m0 0h10l16 2 13 5 11 7 10 10 8 13 5 15 2 11v17l-98 1 2 10 4 8 7 5 7 2h18l10-4 7-6 1-2 9 2 26 9 1 2-6 11-8 8-14 8-14 4-6 1h-26l-12-2-13-5-11-6-12-11-9-14-4-13-1-5v-24l3-13 8-16 11-12 10-8 13-6 12-3zm0 30-8 2-6 4-5 6-4 11h53l-3-10-8-9-6-3-5-1z" fill="#DD5F04"/>
<path transform="translate(947,243)" d="m0 0h10l16 2 13 5 11 7 10 10 8 13 5 14 2 12v17l-98 1 2 10 4 8 10 6 4 1h18l10-4 7-6 1-2 9 2 26 9 1 2-6 11-8 8-10 6-13 5-11 2h-26l-15-3-12-5-10-6-10-9-7-10-5-11-3-12v-24l4-15 6-12 7-9 8-8 11-7 12-5 9-2zm0 30-10 3-7 6-5 10v4h52l-3-10-7-8-7-4-5-1z" fill="#DD5F04"/>
<path transform="translate(220,201)" d="m0 0 3 1 7 14 5 15 2 10 1 11v17l-2 16-4 15-8 18-8 12-9 11-9 9-15 11-16 8-10 4-16 4-8 1h-88l-2-3v-19l1-18 1-3 80-1 13-2 12-4 11-6 10-8 9-10 8-14 4-12 2-13-1-17-4-14-1-6 17-12 14-13z" fill="#026171"/>
<path transform="translate(800,243)" d="m0 0h11l18 2 15 4 14 6-1 8-8 25-16-8-10-3-7-1h-9l-9 3-1 7 4 4 10 4 23 7 14 7 8 7 5 10 2 9v8l-3 12-6 10-7 7-16 8-13 3h-26l-17-3-17-6-10-6-1-4 8-31h4l13 8 12 5 9 2h18l7-4 1-2v-6l-6-5-16-5-21-7-10-6-7-7-5-10-1-5v-11l4-13 7-9 9-7 13-5z" fill="#DD5F04"/>
<path transform="translate(1275,243)" d="m0 0h9l15 2 13 5 1 1v39l-4-2-8-5-6-2h-17l-8 4-8 9-3 9-1 12 3 12 6 9 8 5 7 2h12l10-4 9-6v41l-9 4h-2v16h-57v-20l-5-2-12-11-7-10-5-10-4-17v-23l4-16 7-14 11-12 9-7 11-5 11-3z" fill="#DD5F04"/>
<path transform="translate(1523,189)" d="m0 0h54l12 2 10 4 10 8 7 10 4 10 2 12-1 13-4 11-6 9-9 7-4 3 11 4 8 6 8 9 5 13 1 5v16l-4 16-6 11-10 10-12 6-12 3-12 1h-52l-1-1v-187zm17 14-1 68 1 2h23l14-1 13-4 8-6 4-7 2-9v-14l-3-12-6-8-8-5-7-2-8-1zm0 84-1 75 1 1h39l12-2 10-5 6-7 4-8 2-7v-17l-3-10-5-8-8-7-9-3-7-1z" fill="#0F6979"/>
<path transform="translate(558,246)" d="m0 0h23l-4 42-2 3-7-2h-16l-11 4-8 7-5 11-1 4-1 62-1 1h-45l-1-1v-128l1-1h43l1 28 7-12 9-10 14-7z" fill="#DD6107"/>
<path transform="translate(1947,178)" d="m0 0 16 1v134l9-7 13-12 8-7 14-12 11-10 12-1 11 1-5 5-10 9-10 8-13 11-11 9-9 7-1 3h2l21 21 8 7 14 14 8 7 11 11v1h-22l-8-7-15-15-8-7-10-10-8-7-11-11-1 57h-16l-1-1v-198z" fill="#0D6878"/>
<path transform="translate(1702,260)" d="m0 0h13l10 2 12 6 9 9 2 4 1-16h17v113h-16l-1-1-1-16-7 10-8 6-10 4-4 1h-20l-13-4-10-6-9-9-7-12-4-13-1-6v-21l4-16 7-14 9-10 11-7 9-3zm6 15-11 2-10 6-7 8-5 11-2 8v24l4 13 6 9 8 7 12 4h16l11-4 8-6 7-11 3-9 2-15-1-15-4-12-6-9-9-7-8-3z" fill="#096576"/>
<path transform="translate(1857,260)" d="m0 0h14l12 3 10 6 6 7 4 8 2 9v84l-1 1h-16l-1-79-3-10-4-6-7-5-10-2h-8l-10 2-8 4-6 8-4 10-1 5-1 17v55l-1 1h-16v-114l15 1 1 2v13l10-11 8-5 9-3z" fill="#0E6878"/>
</svg>
